<mxfile host="Electron" modified="2024-04-13T21:19:54.766Z" agent="Mozilla/5.0 (X11; Linux x86_64) AppleWebKit/537.36 (KHTML, like Gecko) draw.io/24.2.5 Chrome/120.0.6099.109 Electron/28.1.0 Safari/537.36" etag="BTUvitCmnrOHBuMbzscs" version="24.2.5" type="device">
  <diagram name="Page-1" id="YQ50-1hEjR-9i3a-X4eI">
    <mxGraphModel dx="1912" dy="1124" grid="1" gridSize="10" guides="1" tooltips="1" connect="1" arrows="1" fold="1" page="1" pageScale="1" pageWidth="1920" pageHeight="1200" math="0" shadow="0">
      <root>
        <mxCell id="0" />
        <mxCell id="1" parent="0" />
        <mxCell id="CPpKu74zjhwVdj7gBYFg-2" value="" style="rounded=1;whiteSpace=wrap;html=1;arcSize=16;" vertex="1" parent="1">
          <mxGeometry x="40" y="100" width="1840" height="260" as="geometry" />
        </mxCell>
        <mxCell id="CPpKu74zjhwVdj7gBYFg-3" value="" style="rounded=1;whiteSpace=wrap;html=1;arcSize=8;" vertex="1" parent="1">
          <mxGeometry x="40" y="400" width="400" height="760" as="geometry" />
        </mxCell>
        <mxCell id="CPpKu74zjhwVdj7gBYFg-4" value="" style="rounded=1;whiteSpace=wrap;html=1;arcSize=6;" vertex="1" parent="1">
          <mxGeometry x="480" y="400" width="1400" height="760" as="geometry" />
        </mxCell>
        <mxCell id="CPpKu74zjhwVdj7gBYFg-5" value="" style="rounded=1;whiteSpace=wrap;html=1;arcSize=50;" vertex="1" parent="1">
          <mxGeometry x="520" y="40" width="880" height="40" as="geometry" />
        </mxCell>
        <mxCell id="CPpKu74zjhwVdj7gBYFg-6" value="" style="rounded=1;whiteSpace=wrap;html=1;arcSize=50;" vertex="1" parent="1">
          <mxGeometry x="110" y="475" width="260" height="160" as="geometry" />
        </mxCell>
        <mxCell id="CPpKu74zjhwVdj7gBYFg-10" value="" style="rounded=1;whiteSpace=wrap;html=1;arcSize=50;" vertex="1" parent="1">
          <mxGeometry x="110" y="720" width="260" height="160" as="geometry" />
        </mxCell>
        <mxCell id="CPpKu74zjhwVdj7gBYFg-11" value="" style="rounded=1;whiteSpace=wrap;html=1;arcSize=50;" vertex="1" parent="1">
          <mxGeometry x="110" y="955" width="260" height="160" as="geometry" />
        </mxCell>
        <mxCell id="CPpKu74zjhwVdj7gBYFg-12" value="&lt;p style=&quot;line-height: 120%;&quot;&gt;&lt;font style=&quot;font-size: 30px;&quot;&gt;Rank&lt;/font&gt;&lt;/p&gt;" style="text;html=1;align=center;verticalAlign=middle;whiteSpace=wrap;rounded=0;" vertex="1" parent="1">
          <mxGeometry x="170" y="445" width="140" height="30" as="geometry" />
        </mxCell>
        <mxCell id="CPpKu74zjhwVdj7gBYFg-13" value="&lt;p style=&quot;line-height: 120%;&quot;&gt;&lt;span style=&quot;font-size: 30px;&quot;&gt;EPA&lt;/span&gt;&lt;/p&gt;" style="text;html=1;align=center;verticalAlign=middle;whiteSpace=wrap;rounded=0;" vertex="1" parent="1">
          <mxGeometry x="170" y="690" width="140" height="30" as="geometry" />
        </mxCell>
        <mxCell id="CPpKu74zjhwVdj7gBYFg-14" value="&lt;p style=&quot;line-height: 120%;&quot;&gt;&lt;font style=&quot;font-size: 30px;&quot;&gt;OPR&lt;/font&gt;&lt;/p&gt;" style="text;html=1;align=center;verticalAlign=middle;whiteSpace=wrap;rounded=0;" vertex="1" parent="1">
          <mxGeometry x="170" y="925" width="140" height="30" as="geometry" />
        </mxCell>
        <mxCell id="CPpKu74zjhwVdj7gBYFg-15" value="" style="rounded=1;whiteSpace=wrap;html=1;arcSize=6;" vertex="1" parent="1">
          <mxGeometry x="500" y="420" width="1360" height="720" as="geometry" />
        </mxCell>
        <mxCell id="CPpKu74zjhwVdj7gBYFg-16" value="" style="rounded=1;whiteSpace=wrap;html=1;arcSize=50;" vertex="1" parent="1">
          <mxGeometry x="1470" y="435" width="370" height="40" as="geometry" />
        </mxCell>
        <mxCell id="CPpKu74zjhwVdj7gBYFg-20" value="" style="rounded=1;whiteSpace=wrap;html=1;" vertex="1" parent="1">
          <mxGeometry x="1130" y="435" width="40" height="40" as="geometry" />
        </mxCell>
        <mxCell id="CPpKu74zjhwVdj7gBYFg-21" value="" style="rounded=1;whiteSpace=wrap;html=1;" vertex="1" parent="1">
          <mxGeometry x="1390" y="435" width="40" height="40" as="geometry" />
        </mxCell>
        <mxCell id="CPpKu74zjhwVdj7gBYFg-22" value="" style="rounded=1;whiteSpace=wrap;html=1;" vertex="1" parent="1">
          <mxGeometry x="790" y="435" width="40" height="40" as="geometry" />
        </mxCell>
        <mxCell id="CPpKu74zjhwVdj7gBYFg-23" value="" style="rounded=1;whiteSpace=wrap;html=1;" vertex="1" parent="1">
          <mxGeometry x="520" y="435" width="40" height="40" as="geometry" />
        </mxCell>
      </root>
    </mxGraphModel>
  </diagram>
</mxfile>
